<svg width="73" height="16" viewBox="0 0 73 16" fill="none" xmlns="http://www.w3.org/2000/svg">
<path d="M21.1467 13H19.3185L22.647 3.54545H24.7614L28.0945 13H26.2663L23.7411 5.48438H23.6673L21.1467 13ZM21.2067 9.29297H26.1925V10.6687H21.2067V9.29297ZM31.4215 13.1246C30.8644 13.1246 30.3658 12.9815 29.9257 12.6953C29.4856 12.4091 29.1378 11.9936 28.8824 11.4489C28.627 10.9041 28.4992 10.2424 28.4992 9.46378C28.4992 8.6759 28.6285 8.01113 28.887 7.46946C29.1486 6.92472 29.501 6.51385 29.9442 6.23686C30.3874 5.95679 30.8813 5.81676 31.4261 5.81676C31.8416 5.81676 32.1832 5.88755 32.4509 6.02912C32.7187 6.16761 32.9311 6.33535 33.088 6.53232C33.245 6.72621 33.3665 6.90933 33.4527 7.08168H33.522V3.54545H35.1977V13H33.5543V11.8828H33.4527C33.3665 12.0552 33.2419 12.2383 33.0788 12.4322C32.9157 12.623 32.7002 12.7861 32.4325 12.9215C32.1647 13.0569 31.8277 13.1246 31.4215 13.1246ZM31.8877 11.7536C32.2417 11.7536 32.5433 11.6581 32.7926 11.4673C33.0418 11.2734 33.2311 11.0041 33.3604 10.6594C33.4896 10.3147 33.5543 9.91312 33.5543 9.45455C33.5543 8.99598 33.4896 8.59742 33.3604 8.25888C33.2342 7.92034 33.0465 7.6572 32.7972 7.46946C32.551 7.28172 32.2478 7.18785 31.8877 7.18785C31.5153 7.18785 31.2045 7.2848 30.9552 7.47869C30.7059 7.67259 30.5182 7.94034 30.392 8.28196C30.2658 8.62358 30.2027 9.01444 30.2027 9.45455C30.2027 9.89773 30.2658 10.2932 30.392 10.641C30.5212 10.9857 30.7105 11.258 30.9598 11.4581C31.2122 11.6551 31.5215 11.7536 31.8877 11.7536ZM39.3499 13.1246C38.7929 13.1246 38.2943 12.9815 37.8542 12.6953C37.4141 12.4091 37.0663 11.9936 36.8109 11.4489C36.5554 10.9041 36.4277 10.2424 36.4277 9.46378C36.4277 8.6759 36.557 8.01113 36.8155 7.46946C37.0771 6.92472 37.4295 6.51385 37.8727 6.23686C38.3158 5.95679 38.8098 5.81676 39.3546 5.81676C39.77 5.81676 40.1117 5.88755 40.3794 6.02912C40.6472 6.16761 40.8595 6.33535 41.0165 6.53232C41.1734 6.72621 41.295 6.90933 41.3812 7.08168H41.4504V3.54545H43.1262V13H41.4828V11.8828H41.3812C41.295 12.0552 41.1704 12.2383 41.0073 12.4322C40.8441 12.623 40.6287 12.7861 40.3609 12.9215C40.0932 13.0569 39.7562 13.1246 39.3499 13.1246ZM39.8162 11.7536C40.1701 11.7536 40.4717 11.6581 40.721 11.4673C40.9703 11.2734 41.1596 11.0041 41.2889 10.6594C41.4181 10.3147 41.4828 9.91312 41.4828 9.45455C41.4828 8.99598 41.4181 8.59742 41.2889 8.25888C41.1627 7.92034 40.9749 7.6572 40.7256 7.46946C40.4794 7.28172 40.1763 7.18785 39.8162 7.18785C39.4438 7.18785 39.133 7.2848 38.8837 7.47869C38.6344 7.67259 38.4466 7.94034 38.3205 8.28196C38.1943 8.62358 38.1312 9.01444 38.1312 9.45455C38.1312 9.89773 38.1943 10.2932 38.3205 10.641C38.4497 10.9857 38.639 11.258 38.8883 11.4581C39.1407 11.6551 39.45 11.7536 39.8162 11.7536ZM47.6855 13V3.54545H49.3982V11.5643H53.5623V13H47.6855ZM54.7149 13V5.90909H56.3861V13H54.7149ZM55.5551 4.9027C55.2904 4.9027 55.0627 4.81499 54.8719 4.63956C54.6811 4.46106 54.5857 4.24716 54.5857 3.99787C54.5857 3.7455 54.6811 3.5316 54.8719 3.35618C55.0627 3.17767 55.2904 3.08842 55.5551 3.08842C55.8229 3.08842 56.0506 3.17767 56.2384 3.35618C56.4292 3.5316 56.5246 3.7455 56.5246 3.99787C56.5246 4.24716 56.4292 4.46106 56.2384 4.63956C56.0506 4.81499 55.8229 4.9027 55.5551 4.9027ZM59.5157 8.84517V13H57.8446V5.90909H59.4419V7.11399H59.525C59.6881 6.71697 59.9481 6.40151 60.3051 6.16761C60.6652 5.93371 61.11 5.81676 61.6393 5.81676C62.1287 5.81676 62.5549 5.9214 62.9181 6.13068C63.2843 6.33996 63.5675 6.64311 63.7675 7.04013C63.9706 7.43714 64.0707 7.9188 64.0676 8.48508V13H62.3964V8.74361C62.3964 8.26965 62.2733 7.89879 62.0271 7.63104C61.784 7.36328 61.447 7.2294 61.0161 7.2294C60.7237 7.2294 60.4636 7.29403 60.2359 7.4233C60.0112 7.54948 59.8343 7.7326 59.705 7.97266C59.5788 8.21271 59.5157 8.50355 59.5157 8.84517ZM67.0299 10.7749L67.0253 8.75746H67.293L69.8413 5.90909H71.7941L68.6595 9.39915H68.3133L67.0299 10.7749ZM65.5064 13V3.54545H67.1776V13H65.5064ZM69.9567 13L67.6485 9.77308L68.7749 8.59588L71.9557 13H69.9567Z" fill="#6666FF"/>
<path d="M6 3V8M6 13V8M6 8H11H1" stroke="#6666FF" stroke-width="1.5" stroke-linecap="round" stroke-linejoin="round"/>
</svg>
