<svg width="818" height="201" viewBox="0 0 818 201" fill="none" xmlns="http://www.w3.org/2000/svg">
<path fill-rule="evenodd" clip-rule="evenodd" d="M41.893 17.6383C34.8853 22.5425 28.5485 28.3409 23.0476 34.8681C45.5269 32.7793 74.0861 36.19 107.243 52.783C142.65 70.5014 171.162 71.1004 191.004 67.2697C189.204 61.8138 186.937 56.5701 184.252 51.5853C161.538 53.9831 132.418 50.8092 98.4811 33.8267C76.931 23.0423 57.9348 18.5999 41.893 17.6383ZM170.983 32.6828C153.046 12.6238 126.978 0 97.9639 0C89.4434 0 81.1763 1.08887 73.295 3.13501C83.9692 6.05003 95.3086 10.3147 107.243 16.2872C132.09 28.7211 153.541 32.7245 170.983 32.6828ZM195.247 86.4206C171.275 91.1583 138.172 90.1851 98.4811 70.3224C61.3743 51.753 31.8404 51.9868 11.9217 56.4171C10.8936 56.6456 9.88967 56.8858 8.90998 57.1358C6.30213 62.8124 4.22046 68.7816 2.72684 74.9802C4.32211 74.5537 5.97057 74.1483 7.67137 73.7698C31.8362 68.3953 65.9791 68.6286 107.243 89.2787C144.35 107.848 173.884 107.614 193.803 103.184C194.485 103.032 195.158 102.876 195.819 102.714C195.892 101.168 195.928 99.6125 195.928 98.0487C195.928 94.1145 195.697 90.2342 195.247 86.4206ZM192.621 123.406C168.882 127.559 136.743 125.965 98.4811 106.818C61.3743 88.2487 31.8404 88.4825 11.9217 92.9129C7.50037 93.8958 3.52298 95.0935 0.0143517 96.3578C0.00478555 96.9201 0 97.4839 0 98.0487C0 152.2 43.8599 196.097 97.9639 196.097C143.307 196.097 181.455 165.266 192.621 123.406Z" fill="#292933"/>
<path d="M246.818 128H222.068V58.1818H247.023C254.045 58.1818 260.091 59.5795 265.159 62.375C270.227 65.1477 274.125 69.1364 276.852 74.3409C279.602 79.5455 280.977 85.7727 280.977 93.0227C280.977 100.295 279.602 106.545 276.852 111.773C274.125 117 270.205 121.011 265.091 123.807C260 126.602 253.909 128 246.818 128ZM236.83 115.352H246.205C250.568 115.352 254.239 114.58 257.216 113.034C260.216 111.466 262.466 109.045 263.966 105.773C265.489 102.477 266.25 98.2273 266.25 93.0227C266.25 87.8636 265.489 83.6477 263.966 80.375C262.466 77.1023 260.227 74.6932 257.25 73.1477C254.273 71.6023 250.602 70.8295 246.239 70.8295H236.83V115.352ZM306.571 128.989C303.23 128.989 300.253 128.409 297.639 127.25C295.026 126.068 292.957 124.33 291.435 122.034C289.935 119.716 289.185 116.83 289.185 113.375C289.185 110.466 289.719 108.023 290.787 106.045C291.855 104.068 293.31 102.477 295.151 101.273C296.991 100.068 299.082 99.1591 301.423 98.5455C303.787 97.9318 306.264 97.5 308.855 97.25C311.901 96.9318 314.355 96.6364 316.219 96.3636C318.082 96.0682 319.435 95.6364 320.276 95.0682C321.116 94.5 321.537 93.6591 321.537 92.5455V92.3409C321.537 90.1818 320.855 88.5114 319.491 87.3295C318.151 86.1477 316.241 85.5568 313.764 85.5568C311.151 85.5568 309.071 86.1364 307.526 87.2955C305.98 88.4318 304.957 89.8636 304.457 91.5909L291.026 90.5C291.707 87.3182 293.048 84.5682 295.048 82.25C297.048 79.9091 299.628 78.1136 302.787 76.8636C305.969 75.5909 309.651 74.9545 313.832 74.9545C316.741 74.9545 319.526 75.2955 322.185 75.9773C324.866 76.6591 327.241 77.7159 329.31 79.1477C331.401 80.5795 333.048 82.4205 334.253 84.6705C335.457 86.8977 336.06 89.5682 336.06 92.6818V128H322.287V120.739H321.878C321.037 122.375 319.912 123.818 318.503 125.068C317.094 126.295 315.401 127.261 313.423 127.966C311.446 128.648 309.162 128.989 306.571 128.989ZM310.73 118.966C312.866 118.966 314.753 118.545 316.389 117.705C318.026 116.841 319.31 115.682 320.241 114.227C321.173 112.773 321.639 111.125 321.639 109.284V103.727C321.185 104.023 320.56 104.295 319.764 104.545C318.991 104.773 318.116 104.989 317.139 105.193C316.162 105.375 315.185 105.545 314.207 105.705C313.23 105.841 312.344 105.966 311.548 106.08C309.844 106.33 308.355 106.727 307.082 107.273C305.81 107.818 304.821 108.557 304.116 109.489C303.412 110.398 303.06 111.534 303.06 112.898C303.06 114.875 303.776 116.386 305.207 117.432C306.662 118.455 308.503 118.966 310.73 118.966ZM370.986 129.023C365.69 129.023 361.111 127.898 357.247 125.648C353.406 123.375 350.44 120.216 348.349 116.17C346.259 112.102 345.213 107.386 345.213 102.023C345.213 96.6136 346.259 91.8864 348.349 87.8409C350.44 83.7727 353.406 80.6136 357.247 78.3636C361.111 76.0909 365.69 74.9545 370.986 74.9545C376.281 74.9545 380.849 76.0909 384.69 78.3636C388.554 80.6136 391.531 83.7727 393.622 87.8409C395.713 91.8864 396.759 96.6136 396.759 102.023C396.759 107.386 395.713 112.102 393.622 116.17C391.531 120.216 388.554 123.375 384.69 125.648C380.849 127.898 376.281 129.023 370.986 129.023ZM371.054 117.773C373.463 117.773 375.474 117.091 377.088 115.727C378.702 114.341 379.918 112.455 380.736 110.068C381.577 107.682 381.997 104.966 381.997 101.92C381.997 98.875 381.577 96.1591 380.736 93.7727C379.918 91.3864 378.702 89.5 377.088 88.1136C375.474 86.7273 373.463 86.0341 371.054 86.0341C368.622 86.0341 366.577 86.7273 364.918 88.1136C363.281 89.5 362.043 91.3864 361.202 93.7727C360.384 96.1591 359.974 98.875 359.974 101.92C359.974 104.966 360.384 107.682 361.202 110.068C362.043 112.455 363.281 114.341 364.918 115.727C366.577 117.091 368.622 117.773 371.054 117.773ZM468.077 82.625H453.145C452.872 80.6932 452.315 78.9773 451.474 77.4773C450.634 75.9545 449.554 74.6591 448.236 73.5909C446.918 72.5227 445.395 71.7045 443.668 71.1364C441.963 70.5682 440.111 70.2841 438.111 70.2841C434.497 70.2841 431.349 71.1818 428.668 72.9773C425.986 74.75 423.906 77.3409 422.429 80.75C420.952 84.1364 420.213 88.25 420.213 93.0909C420.213 98.0682 420.952 102.25 422.429 105.636C423.929 109.023 426.02 111.58 428.702 113.307C431.384 115.034 434.486 115.898 438.009 115.898C439.986 115.898 441.815 115.636 443.497 115.114C445.202 114.591 446.713 113.83 448.031 112.83C449.349 111.807 450.44 110.568 451.304 109.114C452.19 107.659 452.804 106 453.145 104.136L468.077 104.205C467.69 107.409 466.724 110.5 465.179 113.477C463.656 116.432 461.599 119.08 459.009 121.42C456.44 123.739 453.372 125.58 449.804 126.943C446.259 128.284 442.247 128.955 437.77 128.955C431.543 128.955 425.974 127.545 421.065 124.727C416.179 121.909 412.315 117.83 409.474 112.489C406.656 107.148 405.247 100.682 405.247 93.0909C405.247 85.4773 406.679 79 409.543 73.6591C412.406 68.3182 416.293 64.25 421.202 61.4545C426.111 58.6364 431.634 57.2273 437.77 57.2273C441.815 57.2273 445.565 57.7955 449.02 58.9318C452.497 60.0682 455.577 61.7273 458.259 63.9091C460.94 66.0682 463.122 68.7159 464.804 71.8523C466.509 74.9886 467.599 78.5795 468.077 82.625ZM493.321 128.989C489.98 128.989 487.003 128.409 484.389 127.25C481.776 126.068 479.707 124.33 478.185 122.034C476.685 119.716 475.935 116.83 475.935 113.375C475.935 110.466 476.469 108.023 477.537 106.045C478.605 104.068 480.06 102.477 481.901 101.273C483.741 100.068 485.832 99.1591 488.173 98.5455C490.537 97.9318 493.014 97.5 495.605 97.25C498.651 96.9318 501.105 96.6364 502.969 96.3636C504.832 96.0682 506.185 95.6364 507.026 95.0682C507.866 94.5 508.287 93.6591 508.287 92.5455V92.3409C508.287 90.1818 507.605 88.5114 506.241 87.3295C504.901 86.1477 502.991 85.5568 500.514 85.5568C497.901 85.5568 495.821 86.1364 494.276 87.2955C492.73 88.4318 491.707 89.8636 491.207 91.5909L477.776 90.5C478.457 87.3182 479.798 84.5682 481.798 82.25C483.798 79.9091 486.378 78.1136 489.537 76.8636C492.719 75.5909 496.401 74.9545 500.582 74.9545C503.491 74.9545 506.276 75.2955 508.935 75.9773C511.616 76.6591 513.991 77.7159 516.06 79.1477C518.151 80.5795 519.798 82.4205 521.003 84.6705C522.207 86.8977 522.81 89.5682 522.81 92.6818V128H509.037V120.739H508.628C507.787 122.375 506.662 123.818 505.253 125.068C503.844 126.295 502.151 127.261 500.173 127.966C498.196 128.648 495.912 128.989 493.321 128.989ZM497.48 118.966C499.616 118.966 501.503 118.545 503.139 117.705C504.776 116.841 506.06 115.682 506.991 114.227C507.923 112.773 508.389 111.125 508.389 109.284V103.727C507.935 104.023 507.31 104.295 506.514 104.545C505.741 104.773 504.866 104.989 503.889 105.193C502.912 105.375 501.935 105.545 500.957 105.705C499.98 105.841 499.094 105.966 498.298 106.08C496.594 106.33 495.105 106.727 493.832 107.273C492.56 107.818 491.571 108.557 490.866 109.489C490.162 110.398 489.81 111.534 489.81 112.898C489.81 114.875 490.526 116.386 491.957 117.432C493.412 118.455 495.253 118.966 497.48 118.966ZM561.929 75.6364V86.5455H530.395V75.6364H561.929ZM537.554 63.0909H552.077V111.909C552.077 113.25 552.281 114.295 552.69 115.045C553.099 115.773 553.668 116.284 554.395 116.58C555.145 116.875 556.009 117.023 556.986 117.023C557.668 117.023 558.349 116.966 559.031 116.852C559.713 116.716 560.236 116.614 560.599 116.545L562.884 127.352C562.156 127.58 561.134 127.841 559.815 128.136C558.497 128.455 556.895 128.648 555.009 128.716C551.509 128.852 548.44 128.386 545.804 127.318C543.19 126.25 541.156 124.591 539.702 122.341C538.247 120.091 537.531 117.25 537.554 113.818V63.0909ZM586.321 128.989C582.98 128.989 580.003 128.409 577.389 127.25C574.776 126.068 572.707 124.33 571.185 122.034C569.685 119.716 568.935 116.83 568.935 113.375C568.935 110.466 569.469 108.023 570.537 106.045C571.605 104.068 573.06 102.477 574.901 101.273C576.741 100.068 578.832 99.1591 581.173 98.5455C583.537 97.9318 586.014 97.5 588.605 97.25C591.651 96.9318 594.105 96.6364 595.969 96.3636C597.832 96.0682 599.185 95.6364 600.026 95.0682C600.866 94.5 601.287 93.6591 601.287 92.5455V92.3409C601.287 90.1818 600.605 88.5114 599.241 87.3295C597.901 86.1477 595.991 85.5568 593.514 85.5568C590.901 85.5568 588.821 86.1364 587.276 87.2955C585.73 88.4318 584.707 89.8636 584.207 91.5909L570.776 90.5C571.457 87.3182 572.798 84.5682 574.798 82.25C576.798 79.9091 579.378 78.1136 582.537 76.8636C585.719 75.5909 589.401 74.9545 593.582 74.9545C596.491 74.9545 599.276 75.2955 601.935 75.9773C604.616 76.6591 606.991 77.7159 609.06 79.1477C611.151 80.5795 612.798 82.4205 614.003 84.6705C615.207 86.8977 615.81 89.5682 615.81 92.6818V128H602.037V120.739H601.628C600.787 122.375 599.662 123.818 598.253 125.068C596.844 126.295 595.151 127.261 593.173 127.966C591.196 128.648 588.912 128.989 586.321 128.989ZM590.48 118.966C592.616 118.966 594.503 118.545 596.139 117.705C597.776 116.841 599.06 115.682 599.991 114.227C600.923 112.773 601.389 111.125 601.389 109.284V103.727C600.935 104.023 600.31 104.295 599.514 104.545C598.741 104.773 597.866 104.989 596.889 105.193C595.912 105.375 594.935 105.545 593.957 105.705C592.98 105.841 592.094 105.966 591.298 106.08C589.594 106.33 588.105 106.727 586.832 107.273C585.56 107.818 584.571 108.557 583.866 109.489C583.162 110.398 582.81 111.534 582.81 112.898C582.81 114.875 583.526 116.386 584.957 117.432C586.412 118.455 588.253 118.966 590.48 118.966ZM641.599 58.1818V128H627.077V58.1818H641.599ZM662.199 147.636C660.358 147.636 658.631 147.489 657.017 147.193C655.426 146.92 654.108 146.568 653.062 146.136L656.335 135.295C658.04 135.818 659.574 136.102 660.938 136.148C662.324 136.193 663.517 135.875 664.517 135.193C665.54 134.511 666.369 133.352 667.006 131.716L667.858 129.5L649.074 75.6364H664.347L675.188 114.091H675.733L686.676 75.6364H702.051L681.699 133.659C680.722 136.477 679.392 138.932 677.71 141.023C676.051 143.136 673.949 144.761 671.403 145.898C668.858 147.057 665.79 147.636 662.199 147.636ZM753.051 90.5682L739.756 91.3864C739.528 90.25 739.04 89.2273 738.29 88.3182C737.54 87.3864 736.551 86.6477 735.324 86.1023C734.119 85.5341 732.676 85.25 730.994 85.25C728.744 85.25 726.847 85.7273 725.301 86.6818C723.756 87.6136 722.983 88.8636 722.983 90.4318C722.983 91.6818 723.483 92.7386 724.483 93.6023C725.483 94.4659 727.199 95.1591 729.631 95.6818L739.108 97.5909C744.199 98.6364 747.994 100.318 750.494 102.636C752.994 104.955 754.244 108 754.244 111.773C754.244 115.205 753.233 118.216 751.21 120.807C749.21 123.398 746.46 125.42 742.96 126.875C739.483 128.307 735.472 129.023 730.926 129.023C723.994 129.023 718.472 127.58 714.358 124.693C710.267 121.784 707.869 117.83 707.165 112.83L721.449 112.08C721.881 114.193 722.926 115.807 724.585 116.92C726.244 118.011 728.369 118.557 730.96 118.557C733.506 118.557 735.551 118.068 737.097 117.091C738.665 116.091 739.46 114.807 739.483 113.239C739.46 111.92 738.903 110.841 737.812 110C736.722 109.136 735.04 108.477 732.767 108.023L723.699 106.216C718.585 105.193 714.778 103.42 712.278 100.898C709.801 98.375 708.562 95.1591 708.562 91.25C708.562 87.8864 709.472 84.9886 711.29 82.5568C713.131 80.125 715.71 78.25 719.028 76.9318C722.369 75.6136 726.278 74.9545 730.756 74.9545C737.369 74.9545 742.574 76.3523 746.369 79.1477C750.188 81.9432 752.415 85.75 753.051 90.5682ZM791.241 75.6364V86.5455H759.707V75.6364H791.241ZM766.866 63.0909H781.389V111.909C781.389 113.25 781.594 114.295 782.003 115.045C782.412 115.773 782.98 116.284 783.707 116.58C784.457 116.875 785.321 117.023 786.298 117.023C786.98 117.023 787.662 116.966 788.344 116.852C789.026 116.716 789.548 116.614 789.912 116.545L792.196 127.352C791.469 127.58 790.446 127.841 789.128 128.136C787.81 128.455 786.207 128.648 784.321 128.716C780.821 128.852 777.753 128.386 775.116 127.318C772.503 126.25 770.469 124.591 769.014 122.341C767.56 120.091 766.844 117.25 766.866 113.818V63.0909Z" fill="#292933"/>
</svg>
