<svg width="16" height="17" viewBox="0 0 16 17" fill="none" xmlns="http://www.w3.org/2000/svg">
<path d="M13.3333 6.50065L12.0033 14.0647C11.9491 14.3736 11.7877 14.6535 11.5475 14.8551C11.3072 15.0568 11.0036 15.1673 10.69 15.1673H5.31C4.99636 15.1673 4.69275 15.0568 4.45255 14.8551C4.21235 14.6535 4.05093 14.3736 3.99667 14.0647L2.66667 6.50065M14 4.50065H10.25M10.25 4.50065V3.16732C10.25 2.8137 10.1095 2.47456 9.85948 2.22451C9.60943 1.97446 9.27029 1.83398 8.91667 1.83398H7.08333C6.72971 1.83398 6.39057 1.97446 6.14052 2.22451C5.89048 2.47456 5.75 2.8137 5.75 3.16732V4.50065M10.25 4.50065H5.75M2 4.50065H5.75" stroke="#B8B8CC" stroke-width="1.5" stroke-linecap="round" stroke-linejoin="round"/>
</svg>
