<svg width="138" height="97" viewBox="0 0 138 97" fill="none" xmlns="http://www.w3.org/2000/svg">
<path d="M101 95.5V18.5693C101 17.9959 100.773 17.4459 100.368 17.0398L99.9167 16.587C99.3189 15.9872 98.3477 15.9872 97.75 16.587V16.587C97.1523 17.1867 96.1811 17.1867 95.5833 16.587V16.587C94.9856 15.9872 94.0144 15.9872 93.4167 16.587V16.587C92.8189 17.1867 91.8477 17.1867 91.25 16.587V16.587C90.6523 15.9872 89.6811 15.9872 89.0833 16.587V16.587C88.4856 17.1867 87.5144 17.1867 86.9167 16.587V16.587C86.3189 15.9872 85.3477 15.9872 84.75 16.587V16.587C84.1523 17.1867 83.1811 17.1867 82.5833 16.587V16.587C81.9856 15.9872 81.0144 15.9872 80.4167 16.587V16.587C79.8189 17.1867 78.8477 17.1867 78.25 16.587V16.587C77.6523 15.9872 76.6811 15.9872 76.0833 16.587V16.587C75.4856 17.1867 74.5144 17.1867 73.9167 16.587V16.587C73.3189 15.9872 72.3477 15.9872 71.75 16.587V16.587C71.1523 17.1867 70.1811 17.1867 69.5833 16.587V16.587C68.9856 15.9872 68.0144 15.9872 67.4167 16.587V16.587C66.8189 17.1867 65.8477 17.1867 65.25 16.587V16.587C64.6523 15.9872 63.6811 15.9872 63.0833 16.587V16.587C62.4856 17.1867 61.5144 17.1867 60.9167 16.587V16.587C60.3189 15.9872 59.3477 15.9872 58.75 16.587V16.587C58.1523 17.1867 57.1811 17.1867 56.5833 16.587V16.587C55.9856 15.9872 55.0144 15.9872 54.4167 16.587V16.587C53.8189 17.1867 52.8477 17.1867 52.25 16.587V16.587C51.6523 15.9872 50.6811 15.9872 50.0833 16.587V16.587C49.4856 17.1867 48.5144 17.1867 47.9167 16.587V16.587C47.3189 15.9872 46.3477 15.9872 45.75 16.587V16.587C45.1523 17.1867 44.1811 17.1867 43.5833 16.587V16.587C42.9856 15.9872 42.0144 15.9872 41.4167 16.587V16.587C40.8189 17.1867 39.8477 17.1867 39.25 16.587V16.587C38.6523 15.9872 37.6811 15.9872 37.0833 16.587L36.632 17.0398C36.2273 17.4459 36 17.9959 36 18.5693V95.5" stroke="#6666FF" stroke-width="1.5"/>
<rect opacity="0.8" y="95.5" width="138" height="1" fill="#E6E6FF"/>
<circle cx="123.5" cy="56" r="3.75" stroke="#B8B8CC" stroke-width="1.5"/>
<circle cx="15" cy="6.5" r="5.25" stroke="#6666FF" stroke-width="1.5"/>
<circle cx="15" cy="65.5" r="2" fill="#6666FF"/>
<path d="M102 1.5V10" stroke="#B8B8CC" stroke-width="1.5" stroke-linecap="round"/>
<path d="M116.5 15.5L108 15.5" stroke="#B8B8CC" stroke-width="1.5" stroke-linecap="round"/>
<path d="M112.011 5.5L106 11.5104" stroke="#B8B8CC" stroke-width="1.5" stroke-linecap="round"/>
<circle cx="54" cy="47.5" r="2" fill="#292933"/>
<circle cx="82" cy="47.5" r="2" fill="#292933"/>
<path d="M54.1924 62.5C61.9244 54.768 74.4604 54.768 82.1924 62.5" stroke="#292933" stroke-width="1.5" stroke-linecap="round"/>
</svg>
