<svg width="156" height="98" viewBox="0 0 156 98" fill="none" xmlns="http://www.w3.org/2000/svg">
<circle cx="77.7236" cy="15.7412" r="14.9912" stroke="#6666FF" stroke-width="1.5"/>
<circle cx="77.7245" cy="15.7411" r="9.03509" stroke="#6666FF" stroke-width="1.5"/>
<path d="M62.4087 18.2939V18.2939C60.0591 18.2939 58.1543 20.1987 58.1543 22.5483V31.908" stroke="#6666FF" stroke-width="1.5"/>
<path d="M77.2982 31.0571H62.75C58.3317 31.0571 54.75 34.6389 54.75 39.0571V52.3291H64.5351V42.1185V55.7326M64.5351 89.7677V55.7326M64.5351 55.7326H77.2982V44.6712" stroke="#6666FF" stroke-width="1.5"/>
<path d="M64.5352 64.2412H77.2983V96.1491" stroke="#6666FF" stroke-width="1.5"/>
<path d="M61.8809 96.1489C61.8809 91.8639 65.3546 88.3901 69.6396 88.3901C73.9247 88.3901 77.3984 91.8639 77.3984 96.1489V96.2498H61.8809V96.1489Z" stroke="#6666FF" stroke-width="1.5"/>
<path d="M64.5352 82.1098L77.2983 73.6011" stroke="#6666FF" stroke-width="1.5"/>
<path d="M56.877 52.7544H64.5348V62.114H62.877C59.5632 62.114 56.877 59.4278 56.877 56.114V52.7544Z" stroke="#6666FF" stroke-width="1.5"/>
<path d="M92.189 18.2939V18.2939C94.5386 18.2939 96.4434 20.1987 96.4434 22.5483V31.908" stroke="#6666FF" stroke-width="1.5"/>
<path d="M77.2975 31.0571H91.8457C96.264 31.0571 99.8457 34.6389 99.8457 39.0571V52.3291H90.0606V42.1185V55.7326M90.0606 89.7677V55.7326M90.0606 55.7326H77.2975V44.6712" stroke="#6666FF" stroke-width="1.5"/>
<path d="M90.0605 64.2412H77.2974V96.1491" stroke="#6666FF" stroke-width="1.5"/>
<path d="M92.7148 96.1489C92.7148 91.8639 89.2411 88.3901 84.9561 88.3901C80.671 88.3901 77.1973 91.8639 77.1973 96.1489V96.2498H92.7148V96.1489Z" stroke="#6666FF" stroke-width="1.5"/>
<path d="M90.0605 82.1098L77.2974 73.6011" stroke="#6666FF" stroke-width="1.5"/>
<path d="M97.7188 52.7544H90.0609V62.114H91.7188C95.0325 62.114 97.7188 59.4278 97.7188 56.114V52.7544Z" stroke="#6666FF" stroke-width="1.5"/>
<g opacity="0.3">
<path d="M14.75 96.9999C21.6343 77.1697 37.213 61.605 56.75 55.189M138.75 96.9999C131.974 77.4829 116.777 62.0978 97.6729 55.4999" stroke="#6666FF" stroke-width="1.5"/>
<path d="M0.75 96.5H155.25" stroke="#6666FF" stroke-width="1.5"/>
</g>
<g opacity="0.3">
<path d="M118.914 37.7857V40.7857C118.914 41.2591 119.299 41.6429 119.773 41.6429H121.921M118.914 37.7857H125.357M118.914 37.7857V36.0714M121.921 41.6429H125.357M121.921 41.6429L120.195 46.4263C120.094 46.7055 120.302 47 120.599 47H125.357M118.914 30.2857V22.4862C118.914 19.1169 120.285 15.8919 122.713 13.5502L125.143 11L127.787 13.5502C130.215 15.8919 131.586 19.1169 131.586 22.4862V30.2857M118.914 30.2857L113.149 33.2438C112.114 33.7745 111.565 34.9306 111.807 36.0657L113.242 42.7962C113.331 43.2138 113.911 43.2589 114.063 42.8601L116.264 37.118C116.31 36.9981 116.407 36.905 116.529 36.8645L118.914 36.0714M118.914 30.2857V36.0714M131.586 37.7857V40.7857C131.586 41.2591 131.201 41.6429 130.727 41.6429H128.579M131.586 37.7857H125.143M131.586 37.7857V36.0714M128.579 41.6429H125.143M128.579 41.6429L130.305 46.4263C130.406 46.7055 130.198 47 129.901 47H125.143M131.586 30.2857L137.351 33.2438C138.386 33.7745 138.935 34.9306 138.693 36.0657L137.258 42.7962C137.169 43.2138 136.589 43.2589 136.437 42.8601L134.236 37.118C134.19 36.9981 134.093 36.905 133.971 36.8645L131.586 36.0714M131.586 30.2857V36.0714" stroke="#6666FF" stroke-width="1.5"/>
<circle cx="125.25" cy="24.0716" r="3.64286" stroke="#6666FF" stroke-width="1.5"/>
<path d="M124.393 48.7144V53.0001" stroke="#6666FF" stroke-width="1.5"/>
<path d="M126.75 48.7144V53.0001" stroke="#6666FF" stroke-width="1.5"/>
</g>
</svg>
