<svg width="66" height="24" viewBox="0 0 66 24" fill="none" xmlns="http://www.w3.org/2000/svg">
<rect x="0.5" y="0.5" width="65" height="23" rx="3.5" fill="#F7F7FA"/>
<rect x="0.5" y="0.5" width="65" height="23" rx="3.5" stroke="#E6E6FF"/>
<path d="M17.2514 12.2727C17.2514 13.2822 17.0668 14.1501 16.6974 14.8764C16.3281 15.5997 15.8219 16.1567 15.1786 16.5476C14.5385 16.9354 13.8106 17.1293 12.995 17.1293C12.1764 17.1293 11.4454 16.9354 10.8022 16.5476C10.1621 16.1567 9.65732 15.5981 9.288 14.8718C8.91868 14.1455 8.73402 13.2791 8.73402 12.2727C8.73402 11.2633 8.91868 10.3969 9.288 9.67365C9.65732 8.94732 10.1621 8.39027 10.8022 8.00249C11.4454 7.61162 12.1764 7.41619 12.995 7.41619C13.8106 7.41619 14.5385 7.61162 15.1786 8.00249C15.8219 8.39027 16.3281 8.94732 16.6974 9.67365C17.0668 10.3969 17.2514 11.2633 17.2514 12.2727ZM15.8388 12.2727C15.8388 11.5033 15.7141 10.8555 15.4648 10.3292C15.2186 9.79983 14.8801 9.39974 14.4492 9.12891C14.0214 8.855 13.5367 8.71804 12.995 8.71804C12.4503 8.71804 11.964 8.855 11.5362 9.12891C11.1084 9.39974 10.7699 9.79983 10.5206 10.3292C10.2744 10.8555 10.1513 11.5033 10.1513 12.2727C10.1513 13.0421 10.2744 13.6915 10.5206 14.2209C10.7699 14.7472 11.1084 15.1473 11.5362 15.4212C11.964 15.692 12.4503 15.8274 12.995 15.8274C13.5367 15.8274 14.0214 15.692 14.4492 15.4212C14.8801 15.1473 15.2186 14.7472 15.4648 14.2209C15.7141 13.6915 15.8388 13.0421 15.8388 12.2727ZM18.5291 19.6591V9.90909H19.8771V11.0586H19.9925C20.0726 10.9109 20.188 10.7401 20.3388 10.5462C20.4896 10.3523 20.6989 10.183 20.9666 10.0384C21.2344 9.89062 21.5883 9.81676 22.0284 9.81676C22.6009 9.81676 23.1117 9.96141 23.5611 10.2507C24.0104 10.54 24.3628 10.957 24.6183 11.5018C24.8768 12.0465 25.006 12.7021 25.006 13.4684C25.006 14.2347 24.8783 14.8918 24.6229 15.4396C24.3674 15.9844 24.0166 16.4045 23.5703 16.6999C23.1241 16.9923 22.6147 17.1385 22.0423 17.1385C21.6114 17.1385 21.259 17.0662 20.9851 16.9215C20.7143 16.7769 20.5019 16.6076 20.348 16.4137C20.1941 16.2198 20.0756 16.0475 19.9925 15.8967H19.9094V19.6591H18.5291ZM19.8818 13.4545C19.8818 13.9531 19.9541 14.3902 20.0987 14.7656C20.2434 15.1411 20.4527 15.435 20.7266 15.6474C21.0005 15.8567 21.3359 15.9613 21.733 15.9613C22.1454 15.9613 22.4901 15.852 22.767 15.6335C23.044 15.4119 23.2533 15.1119 23.3949 14.7333C23.5395 14.3548 23.6119 13.9285 23.6119 13.4545C23.6119 12.9867 23.5411 12.5666 23.3995 12.1942C23.261 11.8219 23.0517 11.5279 22.7717 11.3125C22.4947 11.0971 22.1484 10.9893 21.733 10.9893C21.3329 10.9893 20.9943 11.0924 20.7173 11.2987C20.4434 11.5049 20.2357 11.7926 20.0941 12.1619C19.9525 12.5312 19.8818 12.9621 19.8818 13.4545ZM29.4726 9.90909V11.017H25.5993V9.90909H29.4726ZM26.6381 8.21023H28.0184V14.918C28.0184 15.1857 28.0584 15.3873 28.1384 15.5227C28.2184 15.6551 28.3215 15.7459 28.4477 15.7951C28.577 15.8413 28.717 15.8643 28.8678 15.8643C28.9786 15.8643 29.0756 15.8567 29.1587 15.8413C29.2418 15.8259 29.3064 15.8136 29.3525 15.8043L29.6018 16.9446C29.5218 16.9754 29.4079 17.0062 29.2602 17.0369C29.1125 17.0708 28.9278 17.0893 28.7062 17.0923C28.3431 17.0985 28.0045 17.0339 27.6906 16.8984C27.3767 16.763 27.1228 16.5537 26.9289 16.2706C26.735 15.9875 26.6381 15.632 26.6381 15.2042V8.21023ZM30.6095 17V9.90909H31.9898V17H30.6095ZM31.3066 8.81499C31.0665 8.81499 30.8603 8.73497 30.688 8.57493C30.5187 8.41181 30.434 8.21792 30.434 7.99325C30.434 7.76551 30.5187 7.57161 30.688 7.41158C30.8603 7.24846 31.0665 7.1669 31.3066 7.1669C31.5466 7.1669 31.7513 7.24846 31.9206 7.41158C32.0929 7.57161 32.1791 7.76551 32.1791 7.99325C32.1791 8.21792 32.0929 8.41181 31.9206 8.57493C31.7513 8.73497 31.5466 8.81499 31.3066 8.81499ZM36.4436 17.1431C35.7789 17.1431 35.1987 16.9908 34.7032 16.6861C34.2077 16.3814 33.823 15.9551 33.5491 15.4073C33.2752 14.8595 33.1382 14.2193 33.1382 13.4869C33.1382 12.7513 33.2752 12.1081 33.5491 11.5572C33.823 11.0063 34.2077 10.5785 34.7032 10.2738C35.1987 9.96911 35.7789 9.81676 36.4436 9.81676C37.1084 9.81676 37.6886 9.96911 38.1841 10.2738C38.6796 10.5785 39.0643 11.0063 39.3382 11.5572C39.6121 12.1081 39.749 12.7513 39.749 13.4869C39.749 14.2193 39.6121 14.8595 39.3382 15.4073C39.0643 15.9551 38.6796 16.3814 38.1841 16.6861C37.6886 16.9908 37.1084 17.1431 36.4436 17.1431ZM36.4483 15.9844C36.8791 15.9844 37.2361 15.8705 37.5193 15.6428C37.8024 15.415 38.0117 15.1119 38.1471 14.7333C38.2856 14.3548 38.3549 13.9377 38.3549 13.4822C38.3549 13.0298 38.2856 12.6143 38.1471 12.2358C38.0117 11.8542 37.8024 11.5479 37.5193 11.3171C37.2361 11.0863 36.8791 10.9709 36.4483 10.9709C36.0143 10.9709 35.6542 11.0863 35.368 11.3171C35.0849 11.5479 34.874 11.8542 34.7355 12.2358C34.6001 12.6143 34.5324 13.0298 34.5324 13.4822C34.5324 13.9377 34.6001 14.3548 34.7355 14.7333C34.874 15.1119 35.0849 15.415 35.368 15.6428C35.6542 15.8705 36.0143 15.9844 36.4483 15.9844ZM42.2801 12.7898V17H40.8998V9.90909H42.2247V11.0632H42.3124C42.4755 10.6877 42.731 10.3861 43.0788 10.1584C43.4296 9.93063 43.8713 9.81676 44.4037 9.81676C44.8869 9.81676 45.3101 9.91832 45.6732 10.1214C46.0364 10.3215 46.318 10.62 46.518 11.017C46.7181 11.4141 46.8181 11.9049 46.8181 12.4897V17H45.4378V12.6559C45.4378 12.1419 45.3039 11.7403 45.0361 11.451C44.7684 11.1586 44.4006 11.0124 43.9328 11.0124C43.6127 11.0124 43.3281 11.0817 43.0788 11.2202C42.8326 11.3587 42.6371 11.5618 42.4925 11.8295C42.3509 12.0942 42.2801 12.4143 42.2801 12.7898ZM50.3429 17.157C49.8935 17.157 49.4873 17.0739 49.1241 16.9077C48.761 16.7384 48.4732 16.4937 48.2609 16.1737C48.0516 15.8536 47.9469 15.4612 47.9469 14.9964C47.9469 14.5964 48.0239 14.267 48.1778 14.0085C48.3316 13.75 48.5394 13.5453 48.801 13.3945C49.0626 13.2437 49.355 13.1299 49.6781 13.0529C50.0013 12.976 50.3306 12.9175 50.666 12.8775C51.0908 12.8282 51.4354 12.7882 51.7001 12.7575C51.9648 12.7236 52.1572 12.6697 52.2772 12.5959C52.3972 12.522 52.4572 12.402 52.4572 12.2358V12.2035C52.4572 11.8003 52.3434 11.4879 52.1156 11.2663C51.8909 11.0447 51.5555 10.9339 51.1092 10.9339C50.6445 10.9339 50.2783 11.037 50.0105 11.2433C49.7458 11.4464 49.5627 11.6726 49.4611 11.9219L48.1639 11.6264C48.3178 11.1955 48.5425 10.8478 48.8379 10.5831C49.1364 10.3153 49.4796 10.1214 49.8674 10.0014C50.2552 9.87831 50.663 9.81676 51.0908 9.81676C51.3739 9.81676 51.674 9.85062 51.991 9.91832C52.311 9.98295 52.6096 10.103 52.8866 10.2784C53.1666 10.4538 53.3959 10.7047 53.5744 11.0309C53.7529 11.354 53.8422 11.7741 53.8422 12.2912V17H52.4942V16.0305H52.4388C52.3495 16.209 52.2156 16.3845 52.0371 16.5568C51.8586 16.7292 51.6293 16.8723 51.3493 16.9862C51.0692 17.1 50.7337 17.157 50.3429 17.157ZM50.643 16.049C51.0246 16.049 51.3508 15.9736 51.6216 15.8228C51.8956 15.672 52.1033 15.475 52.2449 15.2319C52.3895 14.9857 52.4618 14.7225 52.4618 14.4425V13.5284C52.4126 13.5777 52.3172 13.6238 52.1756 13.6669C52.0371 13.7069 51.8786 13.7423 51.7001 13.7731C51.5216 13.8008 51.3477 13.8269 51.1785 13.8516C51.0092 13.8731 50.8676 13.8916 50.7537 13.907C50.486 13.9408 50.2413 13.9978 50.0197 14.0778C49.8012 14.1578 49.6258 14.2732 49.4935 14.424C49.3642 14.5717 49.2996 14.7687 49.2996 15.0149C49.2996 15.3565 49.4257 15.6151 49.6781 15.7905C49.9305 15.9628 50.2521 16.049 50.643 16.049ZM56.671 7.54545V17H55.2907V7.54545H56.671Z" fill="#B8B8CC"/>
</svg>
